<svg width="58" height="64" viewBox="0 0 58 64" fill="none" xmlns="http://www.w3.org/2000/svg">
<g filter="url(#filter0_d_20_163)">
<rect x="2" y="8" width="48" height="48" rx="16" fill="url(#paint0_linear_20_163)"/>
<path d="M25.4333 24.5H20.2417C18.5833 24.5 17.75 25.3417 17.75 27.0167V40.3333H22.25V37.2083C22.25 37.0426 22.3158 36.8836 22.4331 36.7664C22.5503 36.6492 22.7092 36.5833 22.875 36.5833C23.0408 36.5833 23.1997 36.6492 23.3169 36.7664C23.4342 36.8836 23.5 37.0426 23.5 37.2083V40.3333H27.9167V27.0167C27.9167 25.3417 27.0917 24.5 25.4333 24.5ZM24.9583 32.625H20.8333C20.4917 32.625 20.2083 32.3417 20.2083 32C20.2083 31.6583 20.4917 31.375 20.8333 31.375H24.9583C25.3 31.375 25.5833 31.6583 25.5833 32C25.5833 32.3417 25.3 32.625 24.9583 32.625ZM24.9583 29.5H20.8333C20.4917 29.5 20.2083 29.2167 20.2083 28.875C20.2083 28.5333 20.4917 28.25 20.8333 28.25H24.9583C25.3 28.25 25.5833 28.5333 25.5833 28.875C25.5833 29.2167 25.3 29.5 24.9583 29.5Z" fill="white"/>
<path d="M35.1666 39.7092H33.2749V37.2092C34.0666 36.9508 34.6416 36.2092 34.6416 35.3342V33.6675C34.6416 32.5758 33.7499 31.6842 32.6583 31.6842C31.5666 31.6842 30.6749 32.5758 30.6749 33.6675V35.3342C30.6749 36.2008 31.2416 36.9342 32.0166 37.2008V39.7092H16.8333C16.4916 39.7092 16.2083 39.9925 16.2083 40.3342C16.2083 40.6758 16.4916 40.9592 16.8333 40.9592H32.6083C32.6249 40.9592 32.6333 40.9675 32.6499 40.9675C32.6666 40.9675 32.6749 40.9592 32.6916 40.9592H35.1666C35.5083 40.9592 35.7916 40.6758 35.7916 40.3342C35.7916 39.9925 35.5083 39.7092 35.1666 39.7092Z" fill="white"/>
</g>
<defs>
<filter id="filter0_d_20_163" x="-6" y="0" width="64" height="64" filterUnits="userSpaceOnUse" color-interpolation-filters="sRGB">
<feFlood flood-opacity="0" result="BackgroundImageFix"/>
<feColorMatrix in="SourceAlpha" type="matrix" values="0 0 0 0 0 0 0 0 0 0 0 0 0 0 0 0 0 0 127 0" result="hardAlpha"/>
<feOffset/>
<feGaussianBlur stdDeviation="4"/>
<feComposite in2="hardAlpha" operator="out"/>
<feColorMatrix type="matrix" values="0 0 0 0 0 0 0 0 0 0 0 0 0 0 0 0 0 0 0.08 0"/>
<feBlend mode="normal" in2="BackgroundImageFix" result="effect1_dropShadow_20_163"/>
<feBlend mode="normal" in="SourceGraphic" in2="effect1_dropShadow_20_163" result="shape"/>
</filter>
<linearGradient id="paint0_linear_20_163" x1="0.690909" y1="8" x2="49.4181" y2="49.5122" gradientUnits="userSpaceOnUse">
<stop stop-color="#44ECF7"/>
<stop offset="1" stop-color="#1667E1"/>
</linearGradient>
</defs>
</svg>
